<?xml version="1.0" encoding="utf-8"?>
<!-- Generator: Adobe Illustrator 27.1.1, SVG Export Plug-In . SVG Version: 6.00 Build 0)  -->
<svg version="1.1" id="Layer_1" xmlns="http://www.w3.org/2000/svg" xmlns:xlink="http://www.w3.org/1999/xlink" x="0px" y="0px"
	 viewBox="0 0 138.89 27.7" style="enable-background:new 0 0 138.89 27.7;" xml:space="preserve">
<style type="text/css">
	.st0{clip-path:url(#SVGID_00000013902483612096402680000005845540693934830764_);}
	.st1{fill-rule:evenodd;clip-rule:evenodd;fill:#EA5724;}
</style>
<g>
	<defs>
		<rect id="SVGID_1_" x="0.15" y="2.64" width="138.74" height="22.42"/>
	</defs>
	<clipPath id="SVGID_00000171715569807988770810000009599976734032446896_">
		<use xlink:href="#SVGID_1_"  style="overflow:visible;"/>
	</clipPath>
	<g style="clip-path:url(#SVGID_00000171715569807988770810000009599976734032446896_);">
		<path class="st1" d="M9.83,7.47c0-0.04-0.03-0.08-0.07-0.08H5.7c-0.05,0-0.08,0.05-0.08,0.08v11.11c0,0-0.57,0.04-1.24-0.11
			c-1.13-0.25-2.68-1.28-3.6-3.17c-1.06-2.17-0.59-4.34,0.1-5.82c1.13-2.42,5.33-6.02,9.96-6.72c2.94-0.44,4.81,0.28,6.45,1.49
			c1.85,1.36,1.94,3.04,1.94,3.04c0.01,0.07-0.02,0.09-0.1,0.09h-4.31c-0.1,0-0.16,0.04-0.2,0.09l-4.79,5V7.47z M34.5,7.45h-3.8
			c-0.05,0-0.08,0-0.1,0.07c-0.89,2.19-2.17,4.75-2.64,5.56c-0.48-0.88-2.03-3.76-2.82-5.54c-0.01-0.04-0.04-0.08-0.1-0.08h-3.93
			c-0.06,0-0.09,0.05-0.06,0.11c2.32,4.54,4.9,9.03,4.9,9.03s-1.28,2.27-2.34,3.85c-0.04,0.06-0.02,0.14,0.05,0.14h3.9
			c0.07,0,0.12-0.04,0.16-0.1c2.26-3.75,4.7-8.27,6.87-12.93C34.61,7.49,34.58,7.45,34.5,7.45L34.5,7.45z M41.4,7.02
			c3.01,0,7.06,1.21,7.06,7v0c0,5.79-4.05,7-7.06,7c-3.01,0-7.06-1.21-7.06-7C34.34,8.23,38.39,7.02,41.4,7.02z M38.32,14.01
			c0,2.18,0.62,4.21,3.08,4.21c2.46,0,3.08-2.03,3.08-4.21c0-2.17-0.63-4.2-3.08-4.2C38.94,9.81,38.32,11.84,38.32,14.01z
			 M58.14,10.68l1.14,9.79c0.01,0.07,0.06,0.11,0.15,0.11h4.99c0.08,0,0.12-0.03,0.14-0.12c0.87-3.7,1.67-8.22,2.37-12.93
			c0.01-0.07-0.02-0.09-0.06-0.09h-3.74c-0.04,0-0.08,0.02-0.09,0.08c0,0-0.57,6.16-1.22,10.22c-0.01,0.11-0.1,0.1-0.13,0
			L60.45,7.52c-0.01-0.04-0.04-0.08-0.09-0.08h-4.55c-0.05,0-0.1,0.03-0.11,0.09l-1.26,10.2c-0.01,0.09-0.11,0.09-0.12,0
			c-0.65-4.06-1.17-10.22-1.17-10.22c-0.01-0.06-0.04-0.08-0.09-0.08h-3.74c-0.04,0-0.07,0.02-0.06,0.09
			c0.7,4.71,1.5,9.31,2.33,12.93c0.02,0.09,0.09,0.12,0.17,0.12h4.95c0.09,0,0.15-0.04,0.16-0.11l1.14-9.79
			C58.02,10.59,58.13,10.59,58.14,10.68L58.14,10.68z M68.74,7.67C68.71,7.69,68.7,7.7,68.7,7.74l0,0l0.25,2.69
			c0,0.04,0.02,0.08,0.09,0.06l0,0c0.09-0.03,1.49-0.56,3.38-0.56c1.92,0,3.18,0.27,3.11,2.33c-0.03,0-0.07,0-0.12-0.01l0,0h0
			c-0.41-0.03-1.4-0.09-2.53-0.04c-1.41,0.07-5.65,0.43-5.65,4.38c0,3.94,4.59,4.4,6.84,4.4c2.54,0,5.02-0.64,5.02-0.64
			c0.08-0.03,0.1-0.06,0.1-0.14v-7.88c0-2.92-1.29-5.12-5.91-5.12C71.31,7.19,68.98,7.6,68.74,7.67z M73.61,14.72
			c1.28-0.04,1.88,0.1,1.88,0.1v3.32c0,0-0.63,0.12-1.79,0.12c-1.42,0-2.51-0.64-2.51-1.88C71.19,15.14,72.31,14.77,73.61,14.72z
			 M97.71,20.5c-1.13-1.93-3.05-4.38-5.79-7.25c0,0,5.27-5.63,5.31-5.67c0.04-0.04,0.03-0.12-0.06-0.12h-4.31
			c-0.07,0-0.12,0.03-0.16,0.08l-4.25,4.64V7.53c0-0.03-0.04-0.07-0.07-0.07h-3.79c-0.03,0-0.07,0.04-0.07,0.07v12.98
			c0,0.03,0.04,0.08,0.07,0.08h3.79c0.03,0,0.07-0.04,0.07-0.08v-5.76c1.2,1.09,3.32,3.43,4.89,5.74c0.03,0.04,0.06,0.09,0.16,0.09
			h4.19C97.73,20.58,97.74,20.55,97.71,20.5L97.71,20.5z M9.72,20.66H5.59l0,0c-0.2,1.39,2.78,4.16,8.25,4.39
			c3.72,0.15,5.84-1,7.19-2.73c2.3-2.94,1.44-5.96,0.43-7.75c-0.81-1.43-2.75-3.54-4.63-4.48l-3.25,3.4c0,0,4.04,3.92,6.06,7.08
			c0.04,0.07,0.01,0.1-0.08,0.1h-4.56c-0.09,0-0.13-0.03-0.18-0.11c-0.05-0.08-2.03-2.86-4.98-5.56v5.57
			C9.82,20.61,9.78,20.66,9.72,20.66z M102.78,20.59h-3.81c-0.03,0-0.06-0.03-0.06-0.06V7.51c0-0.03,0.03-0.06,0.06-0.06h3.81
			c0.03,0,0.06,0.03,0.06,0.06v13.01C102.84,20.56,102.81,20.59,102.78,20.59z M119.32,20.59h3.81c0.04,0,0.06-0.03,0.06-0.06V7.51
			c0-0.03-0.03-0.06-0.06-0.06h-3.81c-0.03,0-0.06,0.03-0.06,0.06v13.01C119.26,20.56,119.29,20.59,119.32,20.59z M118.11,20.5
			c-0.99-1.57-2.94-3.91-4.54-5.36c1.86-0.39,3.91-1.51,3.91-3.78c0-3.46-3.51-4.17-6.74-4.17c-2.51,0-5.44,0.45-5.44,0.45
			c-0.05,0.01-0.07,0.05-0.07,0.11v12.77c0,0.04,0.02,0.07,0.08,0.07h3.71c0.04,0,0.05-0.02,0.05-0.07v-5.13
			c1.65,1.33,3.55,3.4,4.78,5.1l0,0.01c0.03,0.04,0.06,0.09,0.15,0.09h4.05C118.13,20.59,118.15,20.55,118.11,20.5L118.11,20.5z
			 M110.83,9.93c1.08,0,2.77,0.27,2.77,1.63c0,1.36-1.23,1.7-2.37,1.81c-0.8,0.08-1.65,0.01-2.15-0.1v-3.21
			C109.07,10.06,109.8,9.93,110.83,9.93z M135.07,7.51v10.25h0c0,0.08-0.12,0.09-0.14,0c-1.1-5.09-2.4-9.03-2.81-10.22
			c-0.03-0.07-0.07-0.09-0.13-0.09h-6.33c-0.03,0-0.06,0.03-0.06,0.06v13.01c0,0.03,0.03,0.06,0.06,0.06h3.7
			c0.04,0,0.06-0.03,0.06-0.06v-9.85c0-0.07,0.1-0.08,0.12,0c1.38,3.99,2.64,9.14,2.76,9.82c0.02,0.07,0.04,0.09,0.1,0.09h6.42
			c0.04,0,0.06-0.03,0.06-0.06V7.51c0-0.03-0.03-0.06-0.06-0.06h-3.7C135.09,7.45,135.07,7.48,135.07,7.51z"/>
	</g>
</g>
</svg>
