<?xml version="1.0" encoding="utf-8"?>
<!-- Generator: Adobe Illustrator 27.1.1, SVG Export Plug-In . SVG Version: 6.00 Build 0)  -->
<svg version="1.1" id="Layer_1" xmlns="http://www.w3.org/2000/svg" xmlns:xlink="http://www.w3.org/1999/xlink" x="0px" y="0px"
	 viewBox="0 0 170 27.7" style="enable-background:new 0 0 170 27.7;" xml:space="preserve">
<style type="text/css">
	.st0{clip-path:url(#SVGID_00000118358002242782425210000016293927842470749617_);}
	.st1{fill-rule:evenodd;clip-rule:evenodd;fill:#FFFFFF;}
</style>
<g>
	<defs>
		<rect id="SVGID_1_" width="170" height="27.7"/>
	</defs>
	<clipPath id="SVGID_00000117664030106336801570000015351647586247641754_">
		<use xlink:href="#SVGID_1_"  style="overflow:visible;"/>
	</clipPath>
	<g style="clip-path:url(#SVGID_00000117664030106336801570000015351647586247641754_);">
		<path class="st1" d="M11.85,5.97c0-0.05-0.04-0.1-0.09-0.1H6.8c-0.06,0-0.1,0.06-0.1,0.1V19.7c0,0-0.7,0.05-1.51-0.13
			c-1.38-0.31-3.28-1.59-4.42-3.91c-1.3-2.68-0.73-5.36,0.12-7.19c1.39-2.99,6.53-7.44,12.21-8.3C16.69-0.39,18.99,0.51,21,2
			c2.26,1.68,2.37,3.75,2.37,3.75c0.01,0.09-0.03,0.12-0.12,0.12h-5.29c-0.12,0-0.2,0.05-0.24,0.11l-5.87,6.18V5.97z M42.09,5.95
			h-4.65c-0.06,0-0.1,0-0.13,0.08c-1.1,2.71-2.65,5.87-3.23,6.86c-0.59-1.08-2.48-4.64-3.45-6.84c-0.02-0.04-0.05-0.1-0.12-0.1
			h-4.81c-0.07,0-0.11,0.06-0.07,0.14c2.85,5.61,6,11.16,6,11.16s-1.57,2.81-2.87,4.76c-0.04,0.07-0.02,0.17,0.06,0.17h4.77
			c0.08,0,0.15-0.05,0.19-0.12c2.77-4.63,5.76-10.22,8.41-15.98C42.22,6,42.19,5.94,42.09,5.95L42.09,5.95z M50.54,5.42
			c3.69,0,8.66,1.49,8.66,8.65v0c0,7.15-4.97,8.65-8.66,8.65c-3.69,0-8.66-1.49-8.66-8.65C41.89,6.91,46.85,5.42,50.54,5.42z
			 M46.76,14.06c0,2.69,0.76,5.2,3.78,5.2c3.02,0,3.78-2.51,3.78-5.2c0-2.69-0.77-5.19-3.78-5.19S46.76,11.37,46.76,14.06z
			 M71.05,9.94l1.4,12.1c0.02,0.09,0.07,0.14,0.19,0.14h6.12c0.1,0,0.15-0.04,0.18-0.15c1.07-4.57,2.04-10.16,2.91-15.98
			c0.01-0.08-0.03-0.11-0.07-0.11h-4.59c-0.05,0-0.1,0.03-0.11,0.1c0,0-0.7,7.61-1.49,12.62c-0.02,0.14-0.13,0.13-0.15,0L73.89,6.04
			c-0.01-0.05-0.04-0.1-0.11-0.1H68.2c-0.07,0-0.12,0.04-0.14,0.11l-1.54,12.61c-0.01,0.11-0.13,0.11-0.15,0
			c-0.8-5.02-1.43-12.62-1.43-12.62c-0.01-0.07-0.05-0.1-0.11-0.1h-4.59c-0.04,0-0.08,0.03-0.07,0.11
			c0.86,5.82,1.84,11.5,2.85,15.98c0.03,0.11,0.11,0.15,0.21,0.15h6.07c0.11,0,0.18-0.05,0.2-0.14l1.4-12.1
			C70.9,9.82,71.04,9.82,71.05,9.94L71.05,9.94z M84.05,6.23C84,6.24,83.99,6.25,83.99,6.31l0,0l0.3,3.32c0,0.05,0.03,0.1,0.11,0.07
			l0,0C84.51,9.65,86.22,9,88.54,9c2.35,0,3.89,0.33,3.81,2.88c-0.04,0-0.09-0.01-0.15-0.01h0c-0.5-0.03-1.71-0.12-3.1-0.04
			c-1.73,0.09-6.92,0.54-6.92,5.41c0,4.87,5.62,5.44,8.38,5.44c3.11,0,6.16-0.8,6.16-0.8c0.1-0.03,0.13-0.07,0.13-0.17v-9.74
			c0-3.6-1.58-6.33-7.24-6.33C87.2,5.62,84.34,6.13,84.05,6.23z M90.01,14.93c1.56-0.05,2.31,0.12,2.31,0.12v4.1
			c0,0-0.77,0.15-2.19,0.15c-1.74,0-3.07-0.79-3.07-2.32S88.42,14.99,90.01,14.93z M119.54,22.07c-1.38-2.39-3.74-5.42-7.09-8.96
			c0,0,6.46-6.96,6.51-7.01c0.04-0.05,0.04-0.15-0.07-0.15h-5.29c-0.09,0-0.14,0.04-0.2,0.1l-5.21,5.73V6.04
			c0-0.04-0.04-0.09-0.08-0.09h-4.65c-0.04,0-0.08,0.05-0.08,0.09v16.04c0,0.04,0.04,0.09,0.08,0.09h4.65
			c0.04,0,0.08-0.05,0.08-0.09v-7.11c1.47,1.35,4.06,4.24,5.99,7.09c0.04,0.05,0.08,0.11,0.19,0.11h5.13
			C119.57,22.18,119.58,22.13,119.54,22.07L119.54,22.07z M11.72,22.27H6.66l0,0c-0.25,1.72,3.41,5.14,10.11,5.42
			c4.56,0.19,7.15-1.23,8.81-3.37c2.82-3.63,1.77-7.36,0.52-9.58c-0.99-1.76-3.37-4.38-5.68-5.54l-3.98,4.2c0,0,4.95,4.84,7.42,8.74
			c0.05,0.08,0.02,0.13-0.1,0.13h-5.59c-0.11,0-0.15-0.03-0.22-0.13c-0.07-0.1-2.48-3.53-6.1-6.88v6.89
			C11.85,22.21,11.8,22.27,11.72,22.27z M125.75,22.18h-4.67c-0.04,0-0.07-0.04-0.07-0.08V6.03c0-0.04,0.03-0.08,0.07-0.08h4.67
			c0.04,0,0.08,0.04,0.08,0.08V22.1C125.83,22.14,125.79,22.18,125.75,22.18z M146.03,22.18h4.67c0.04,0,0.08-0.04,0.08-0.08V6.03
			c0-0.04-0.04-0.08-0.08-0.08h-4.67c-0.04,0-0.07,0.04-0.07,0.08V22.1C145.95,22.14,145.99,22.18,146.03,22.18z M144.54,22.08
			c-1.21-1.94-3.6-4.83-5.56-6.62c2.28-0.48,4.79-1.86,4.79-4.67c0-4.28-4.31-5.15-8.25-5.15c-3.07,0-6.66,0.55-6.66,0.55
			c-0.06,0.01-0.08,0.06-0.08,0.14v15.77c0,0.05,0.02,0.09,0.1,0.09h4.54c0.05,0,0.07-0.02,0.07-0.08v-6.34
			c2.02,1.64,4.35,4.2,5.86,6.31l0.01,0.01c0.04,0.05,0.08,0.11,0.19,0.11h4.97c0.07,0,0.08-0.04,0.04-0.11L144.54,22.08z
			 M135.61,9.01c1.33,0,3.4,0.33,3.4,2.01c0,1.68-1.51,2.1-2.91,2.24c-0.98,0.1-2.02,0.01-2.63-0.12V9.17
			C133.47,9.17,134.36,9.01,135.61,9.01z M165.32,6.03v12.67h0c0,0.1-0.15,0.11-0.17,0c-1.35-6.29-2.94-11.16-3.44-12.63
			c-0.03-0.09-0.09-0.11-0.15-0.11h-7.76c-0.04,0-0.07,0.04-0.07,0.08V22.1c0,0.04,0.03,0.08,0.07,0.08h4.53
			c0.04,0,0.08-0.04,0.08-0.08V9.94c0-0.09,0.12-0.1,0.15,0c1.69,4.93,3.24,11.3,3.38,12.14c0.02,0.08,0.05,0.11,0.13,0.11h7.87
			c0.04,0,0.08-0.04,0.08-0.08V6.03c0-0.04-0.04-0.08-0.08-0.08h-4.53C165.35,5.95,165.32,5.99,165.32,6.03z"/>
	</g>
</g>
</svg>
